<svg xmlns="http://www.w3.org/2000/svg" xmlns:xlink="http://www.w3.org/1999/xlink" width="2000" height="2008.276"><defs><linearGradient id="a"><stop offset="0" stop-color="#070135"/><stop offset="1" stop-color="#612d50"/></linearGradient><linearGradient x1="314.624" y1="547.206" x2="427.377" y2="432.484" id="b" xlink:href="#a" gradientUnits="userSpaceOnUse" gradientTransform="translate(-52)"/></defs><g transform="matrix(15.623 0 0 15.623 -3987.602 -6644.883)"><rect width="128.016" height="128.546" ry="20.68" x="255.239" y="425.326" fill="url(#b)"/><path d="M320.213 480.665c3.269 0 5.748-.711 7.437-2.133 1.689-1.422 2.533-3.52 2.533-6.293 0-2.738-.844-4.818-2.533-6.24-1.689-1.458-4.168-2.187-7.437-2.187h-11.479v16.854h11.479m.701 34.827c4.167 0 7.293-.871 9.377-2.613 2.12-1.742 3.179-4.373 3.18-7.893 0-3.449-1.042-6.027-3.126-7.733-2.084-1.742-5.227-2.613-9.431-2.613h-12.179v20.854h12.179m340.207 486.852c4.455 1.28 7.904 3.645 10.347 7.093 2.443 3.449 3.664 7.68 3.665 12.694 0 7.68-2.623 13.405-7.868 17.174s-13.221 5.653-23.927 5.653h-34.436v-79.628h31.149c11.173 0 19.257 1.671 24.251 5.013 5.03 3.342 7.545 8.694 7.545 16.054 0 3.876-.916 7.182-2.748 9.92-1.832 2.702-4.491 4.711-7.976 6.027" style="line-height:100%;-inkscape-font-specification:Sans Bold" font-weight="bold" fill="#fff" font-family="Sans" font-size="109.797" letter-spacing="0" word-spacing="0" text-anchor="middle"/></g></svg>