<svg xmlns="http://www.w3.org/2000/svg" width="681.963" height="187.5"><defs><clipPath id="a"><path d="M0 1500V0h5455.74v1500H0z"/></clipPath></defs><g clip-path="url(#a)" fill="#8a4182" transform="matrix(.13 0 0 -.13 0 187.5)"><path d="M1544 599.434c.92-40.352 25.68-81.602 71.53-81.602 27.51 0 47.68 12.832 61.44 35.754 12.83 22.93 12.83 56.852 12.83 82.527v329.184h-71.52v104.543h266.83V965.297h-70.6v-344.77c0-58.69-3.68-104.53-44.93-152.218-36.68-42.18-96.28-66.02-153.14-66.02-117.37 0-207.24 77.94-202.64 197.144H1544M2301.4 662.695c0 80.703-66.94 145.813-147.63 145.813-83.44 0-147.63-68.78-147.63-151.3 0-79.786 66.94-145.802 145.8-145.802 84.35 0 149.46 67.852 149.46 151.29zm-1.83-181.547c-35.77-54.097-93.53-78.86-157.72-78.86-140.3 0-251.24 116.45-251.24 254.92 0 142.128 113.7 260.41 256.74 260.41 63.27 0 118.29-29.337 152.22-82.524v69.687h175.14V800.255h-61.44V519.656h61.44V415.13h-175.14v66.018M2622.33 557.258c3.67-44.016 33.01-73.348 78.86-73.348 33.93 0 66.93 23.824 66.93 60.504 0 48.606-45.84 56.856-83.44 66.94-85.28 22.005-178.81 48.607-178.81 155.88 0 93.536 78.86 147.633 165.98 147.633 44 0 83.43-9.176 110.94-44.008v33.92h82.53V771.817h-108.21c-1.83 34.856-28.42 57.774-63.26 57.774-30.26 0-62.35-17.422-62.35-51.348 0-45.847 44.93-55.93 80.69-64.18 88.02-20.175 182.47-47.695 182.47-157.734 0-99.027-83.44-154.04-175.13-154.04-49.53 0-94.46 15.583-126.55 53.18v-40.34h-85.27v142.13h114.62M2988.18 800.254h-63.26V904.78h165.05v-73.354c31.18 51.347 78.86 85.277 141.21 85.277 67.85 0 124.71-41.258 152.21-102.7 26.6 62.352 92.62 102.7 160.47 102.7 53.19 0 105.46-22 141.21-62.35 38.52-44.94 38.52-93.533 38.52-149.458v-185.24h63.27V415.13h-238.42v104.526h63.28V677.37c0 32.103 0 60.528-14.67 88.958-18.34 26.582-48.61 40.344-79.77 40.344-30.26 0-63.28-12.844-82.53-36.672-22.93-29.355-22.93-56.863-22.93-92.63V519.657h63.27V415.13h-238.41v104.526h63.28V670.04c0 29.347 0 66.022-14.67 91.698-15.59 29.336-47.69 44.934-80.7 44.934-31.18 0-57.77-11.008-77.94-35.774-24.77-30.253-26.6-62.343-26.6-99.94V519.655h63.27V415.13h-238.4v104.526h63.26v280.598M3998.66 951.547h-111.87v118.293h111.87V951.547zm0-431.89h63.27V415.128H3822.6v104.526h64.19v280.598h-63.27V904.78h175.14V519.657M4159.12 800.254h-63.27V904.78h175.14v-69.686c29.35 54.1 84.36 80.7 144.87 80.7 53.19 0 105.45-22.017 141.22-60.528 40.34-44.934 41.26-88.032 41.26-143.957V519.655h63.27V415.13h-238.4v104.526h63.26v158.637c0 30.262 0 61.434-19.26 88.035-20.17 26.582-53.18 39.414-86.19 39.414-33.93 0-68.77-13.75-88.94-41.25-21.09-27.5-21.09-69.687-21.09-102.707v-142.13h63.26V415.13h-238.4v104.526h63.27v280.598M5082.48 703.965c-19.24 70.605-81.6 115.547-154.04 115.547-66.04 0-129.3-51.348-143.05-115.547h297.09zm85.27-144.883c-38.51-93.523-129.27-156.793-231.05-156.793-143.07 0-257.68 111.87-257.68 255.835 0 144.883 109.12 261.328 254.91 261.328 67.87 0 135.72-30.258 183.39-78.863 48.62-51.344 68.79-113.695 68.79-183.383l-3.67-39.434h-396.13c14.67-67.863 77.03-117.363 146.72-117.363 48.59 0 90.76 18.328 118.28 58.672h116.44M690.895 850.703h90.75l22.543 31.035v243.122h-135.83V881.72l22.537-31.017M632.395 742.258l28.04 86.304-22.552 31.04L406.66 934.73l-41.976-129.183L595.94 730.41l36.455 11.848M717.45 653.105l-73.41 53.36-36.49-11.875L464.65 497.898 574.53 418.07l142.92 196.703v38.332M828.52 706.465l-73.426-53.34.01-38.36 142.9-196.695 109.896 79.828-142.927 196.71-36.453 11.857M812.086 828.586l28.055-86.32 36.485-11.836 231.225 75.117-41.97 129.183-231.24-75.14-22.554-31.004"/><path d="M736.3 1335.88c-323.046 0-585.874-262.78-585.874-585.782 0-323.118 262.828-585.977 585.875-585.977 323.02 0 585.81 262.86 585.81 585.978 0 323.002-262.79 585.782-585.81 585.782zm0-118.61c257.973 0 467.19-209.13 467.19-467.172 0-258.13-209.217-467.348-467.19-467.348-258.073 0-467.253 209.22-467.253 467.348 0 258.042 209.18 467.172 467.254 467.172"/><path d="M1091.13 619.883l-175.77 57.12 11.628 35.81 175.762-57.122-11.62-35.807M866.957 902.074L836.5 924.2l108.62 149.53 30.466-22.12-108.63-149.536M607.465 903.445l-108.61 149.525 30.465 22.13 108.61-149.534-30.465-22.12M380.688 622.13l-11.626 35.8 175.758 57.09 11.62-35.8-175.752-57.09M716.29 376.59h37.64v184.816h-37.64V376.59z"/></g></svg>